<?xml version="1.0" encoding="utf-8"?>
<!-- Generator: Adobe Illustrator 16.0.0, SVG Export Plug-In . SVG Version: 6.00 Build 0)  -->
<!DOCTYPE svg PUBLIC "-//W3C//DTD SVG 1.1//EN" "http://www.w3.org/Graphics/SVG/1.1/DTD/svg11.dtd">
<svg version="1.1" id="Layer_1" xmlns="http://www.w3.org/2000/svg" xmlns:xlink="http://www.w3.org/1999/xlink" x="0px" y="0px"
	 width="350px" height="350px" viewBox="0 0 350 350" enable-background="new 0 0 350 350" xml:space="preserve">
<g>
	<line fill="#FFFFFF" x1="94.825" y1="40.802" x2="94.825" y2="341.234"/>
	<rect x="89.825" y="40.802" fill="#F1656A" width="10" height="300.433"/>
</g>
<g>
	<circle fill="#FFFFFF" cx="94.825" cy="25.479" r="15.322"/>
	<path fill="#F1656A" d="M94.825,45.802c-11.206,0-20.322-9.117-20.322-20.322S83.619,5.158,94.825,5.158
		s20.322,9.116,20.322,20.322S106.03,45.802,94.825,45.802z M94.825,15.158c-5.691,0-10.322,4.63-10.322,10.322
		c0,5.692,4.63,10.322,10.322,10.322s10.322-4.63,10.322-10.322C105.146,19.788,100.516,15.158,94.825,15.158z"/>
</g>
<g>
	<g>
		<path fill="#FFFFFF" d="M278.089,176.597c-61.088-18.338-122.176,18.338-183.264,0c0-10.916,0-21.832,0-32.747s0-21.831,0-32.747
			s0-21.831,0-32.747c0-10.916,0-21.832,0-32.748c61.088,18.338,122.176-18.338,183.264,0
			c-10.015,19.626-20.028,40.731-30.043,62.83C258.061,130.003,268.074,152.561,278.089,176.597z"/>
	</g>
	<path fill="#F1656A" d="M133.545,186.891c-14.684,0-27.818-1.801-40.158-5.505c-2.115-0.635-3.562-2.581-3.562-4.789V45.609
		c0-1.581,0.748-3.068,2.016-4.012c1.268-0.943,2.907-1.232,4.422-0.777c11.393,3.42,23.591,5.083,37.291,5.083
		c17.261,0,35.003-2.663,52.162-5.239c17.521-2.629,35.639-5.349,53.646-5.349c14.688,0,27.826,1.801,40.166,5.505
		c1.42,0.427,2.578,1.461,3.16,2.825c0.583,1.364,0.53,2.916-0.144,4.236c-9.129,17.891-18.624,37.713-28.996,60.535
		c10.414,22.491,19.962,44.187,29.157,66.257c0.743,1.783,0.393,3.836-0.902,5.271c-1.295,1.435-3.304,1.993-5.15,1.44
		c-11.394-3.421-23.591-5.083-37.291-5.083c-17.263,0-35.006,2.663-52.166,5.238c-17.52,2.63-35.636,5.349-53.642,5.35
		C133.551,186.891,133.547,186.891,133.545,186.891z M99.825,172.813c10.37,2.741,21.443,4.078,33.72,4.078c0.002,0,0.005,0,0.007,0
		c17.26-0.001,35.001-2.664,52.158-5.239c17.522-2.63,35.642-5.349,53.65-5.349c10.817,0,20.794,0.977,30.23,2.971
		c-8.237-19.466-16.811-38.77-26.08-58.729c-0.613-1.321-0.62-2.843-0.019-4.17c9.753-21.521,18.735-40.416,27.36-57.549
		c-9.725-2.359-20.088-3.511-31.492-3.511c-17.261,0-35.003,2.663-52.161,5.239c-17.521,2.629-35.639,5.349-53.646,5.349
		c-12.163,0-23.264-1.235-33.728-3.763V172.813z"/>
</g>
<g>
	<g>
		<path fill="#F1656A" d="M118.204,78.729c20.06,4.68,40.119,2.012,60.178-0.312c11.582-1.385,19.247-1.821,22.997-1.751
			c8.951,0.127,15.806,1.779,20.562,4.26c5.93,3.132,8.896,7.586,8.896,12.521c0,4.356-0.952,7.41-2.854,9.255
			c-2.183,1.464-4.337,3.012-6.463,4.628c3.693,2.743,6.295,5.193,7.806,7.096c2.573,3.232,3.86,6.555,3.86,9.792
			c0,5.049-1.93,8.538-5.791,10.848c-3.302,1.969-7.918,3.14-13.849,3.94c-4.309,0.573-9.876,0.981-16.701,1.459
			c-2.631,0.183-5.051,0.367-7.261,0.523c-2.211,0.158-4.351,0.329-6.42,0.501c-21.654,2.398-43.308,5.909-64.962,0.857
			c0-3.609,0-7.218,0-10.827c7.274,1.697,14.548,2.428,21.822,2.559c0-13.429,0-26.857,0-40.286
			c-7.274-0.131-14.548-0.862-21.822-2.559C118.204,87.066,118.204,82.897,118.204,78.729z M194.469,103.294
			c6.331-0.507,11.29-1.25,14.875-2.46c3.586-1.205,5.38-3.008,5.38-5.631c0-2.61-1.486-4.495-4.455-5.502
			c-2.969-1.003-8.208-1.448-15.716-0.849c-13.476,1.064-26.951,3.217-40.427,4.125c0,4.812,0,9.624,0,14.436
			C167.574,106.507,181.021,104.361,194.469,103.294z M194.496,129.898c7.441-0.597,13.148-1.379,17.122-2.694
			c4.419-1.467,6.63-3.623,6.63-6.825c0-2.844-1.875-5.027-5.623-6.287c-3.749-1.255-9.876-1.822-18.381-1.129
			c-13.373,1.073-26.746,3.199-40.118,4.101c0,5.651,0,11.303,0,16.954C167.583,133.112,181.039,130.964,194.496,129.898z"/>
	</g>
</g>
</svg>
